<svg width="38" height="38" viewBox="0 0 38 38" fill="none" xmlns="http://www.w3.org/2000/svg">
<path d="M37.2833 17.3072L20.6919 0.716737C19.7371 -0.238912 18.1873 -0.238912 17.2313 0.716737L13.7861 4.162L18.1565 8.53247C19.1721 8.18932 20.3367 8.41947 21.1464 9.22919C21.9598 10.0439 22.1883 11.2185 21.8368 12.2375L26.0488 16.4495C27.0678 16.0984 28.2436 16.3257 29.0574 17.1408C30.1948 18.2778 30.1948 20.1208 29.0574 21.2586C27.9196 22.3965 26.0767 22.3965 24.9385 21.2586C24.0829 20.4022 23.8715 19.1455 24.3047 18.0915L20.3767 14.1634L20.3763 24.5004C20.6535 24.638 20.9154 24.821 21.1464 25.0512C22.2838 26.1882 22.2838 28.0311 21.1464 29.1698C20.0085 30.3073 18.1648 30.3073 17.0286 29.1698C15.8912 28.0311 15.8912 26.1882 17.0286 25.0512C17.3097 24.7706 17.6349 24.5584 17.9818 24.4158V13.9824C17.6349 13.8407 17.3101 13.6297 17.0286 13.347C16.1668 12.4864 15.9596 11.2218 16.4011 10.1636L12.0933 5.85481L0.717036 17.2305C-0.239012 18.1869 -0.239012 19.7367 0.717036 20.6924L17.3084 37.2833C18.2636 38.2389 19.813 38.2389 20.7694 37.2833L37.2833 20.7695C38.2389 19.8135 38.2389 18.2628 37.2833 17.3072Z" fill="white"/>
</svg>
