<svg width="38" height="38" viewBox="0 0 38 38" fill="none" xmlns="http://www.w3.org/2000/svg">
<path fill-rule="evenodd" clip-rule="evenodd" d="M11.1523 0.233185C8.05937 0.37274 5.37854 1.12893 3.21384 3.2845C1.04157 5.4514 0.294769 8.14284 0.154866 11.2036C0.0678991 13.1141 -0.440637 27.5468 1.03401 31.3318C2.02845 33.8853 3.98704 35.8486 6.56389 36.8462C7.76629 37.3139 9.13888 37.6305 11.1523 37.7229C27.9879 38.4848 34.2287 38.07 36.8603 31.3318C37.3273 30.1323 37.6487 28.7609 37.7376 26.7525C38.507 9.87375 37.6128 6.21518 34.6786 3.2845C32.3514 0.96297 29.6138 -0.617349 11.1523 0.233185ZM11.3073 34.3283C9.46403 34.2454 8.46393 33.9382 7.79656 33.6799C6.11773 33.0273 4.85672 31.7715 4.20825 30.1025C3.08525 27.2265 3.45771 13.567 3.55791 11.3567C3.65622 9.19171 4.09483 7.21304 5.62241 5.68548C7.51298 3.79958 9.95558 2.87532 26.5869 3.62591C28.7573 3.72397 30.7406 4.16168 32.2719 5.68548C34.1625 7.57136 35.1002 10.0328 34.3364 26.6003C34.2532 28.4391 33.9451 29.4368 33.6861 30.1025C31.9751 34.4872 28.0389 35.0959 11.3073 34.3283ZM26.7703 8.91029C26.7703 10.1588 27.7856 11.174 29.0391 11.174C30.2925 11.174 31.3096 10.1588 31.3096 8.91029C31.3096 7.66183 30.2925 6.64754 29.0391 6.64754C27.7856 6.64754 26.7703 7.66183 26.7703 8.91029ZM9.23907 18.9771C9.23907 24.3255 13.5855 28.6617 18.9472 28.6617C24.3088 28.6617 28.6553 24.3255 28.6553 18.9771C28.6553 13.6287 24.3088 9.29529 18.9472 9.29529C13.5855 9.29529 9.23907 13.6287 9.23907 18.9771ZM12.6459 18.9771C12.6459 15.5071 15.4666 12.6917 18.9472 12.6917C22.4277 12.6917 25.2485 15.5071 25.2485 18.9771C25.2485 22.4491 22.4277 25.2653 18.9472 25.2653C15.4666 25.2653 12.6459 22.4491 12.6459 18.9771Z" fill="#FFFEFE"/>
</svg>
