<svg width="38" height="38" viewBox="0 0 38 38" fill="none" xmlns="http://www.w3.org/2000/svg">
<path d="M27.3125 0H10.6875C4.75 0 0 4.75 0 10.6875V27.3125C0 33.25 4.75 38 10.6875 38H27.3125C33.25 38 38 33.25 38 27.3125V10.6875C38 4.75 33.25 0 27.3125 0Z" fill="#FBFEFF"/>
<path d="M14.25 29.6875C14.25 30.4 13.775 30.875 13.0625 30.875H8.3125C7.6 30.875 7.125 30.4 7.125 29.6875V15.4375C7.125 14.725 7.6 14.25 8.3125 14.25H13.0625C13.775 14.25 14.25 14.725 14.25 15.4375V29.6875ZM10.6875 13.0625C8.66875 13.0625 7.125 11.5188 7.125 9.5C7.125 7.48125 8.66875 5.9375 10.6875 5.9375C12.7063 5.9375 14.25 7.48125 14.25 9.5C14.25 11.5188 12.7063 13.0625 10.6875 13.0625ZM30.875 29.6875C30.875 30.4 30.4 30.875 29.6875 30.875H26.125C25.4125 30.875 24.9375 30.4 24.9375 29.6875V25.5312V24.3438V21.9688C24.9375 21.0188 24.1063 20.1875 23.1562 20.1875C22.2063 20.1875 21.375 21.0188 21.375 21.9688V24.3438V25.5312V29.6875C21.375 30.4 20.9 30.875 20.1875 30.875H16.625C15.9125 30.875 15.4375 30.4 15.4375 29.6875V15.4375C15.4375 14.725 15.9125 14.25 16.625 14.25H21.375C21.7312 14.25 21.9688 14.3688 22.2063 14.6062C22.9188 14.3688 23.6313 14.25 24.3438 14.25C27.9062 14.25 30.875 17.2188 30.875 20.7812V29.6875Z" fill="#1F0556"/>
</svg>
