<svg width="38" height="38" viewBox="0 0 38 38" fill="none" xmlns="http://www.w3.org/2000/svg">
<path fill-rule="evenodd" clip-rule="evenodd" d="M19 0C8.52321 0 1.24104e-05 8.5232 1.24104e-05 18.9998C1.24104e-05 22.6853 1.04621 26.225 3.03468 29.2971L0.148402 35.6549C-0.117622 36.2411 -0.0207426 36.9279 0.396854 37.4175C0.716807 37.7926 1.18076 38 1.65931 38C1.8055 38 1.95302 37.9807 2.09811 37.9408L10.0508 35.7589C12.7963 37.2272 15.8752 38 19 38C29.4766 38 38 29.4766 38 18.9998C38 8.5232 29.4766 0 19 0ZM19 34.6816C16.225 34.6816 13.4946 33.9434 11.104 32.5465C10.8478 32.3968 10.5585 32.32 10.2671 32.32C10.1199 32.32 9.97228 32.3397 9.82807 32.3792L4.63281 33.8046L6.44236 29.8183C6.68828 29.2762 6.62524 28.6442 6.27706 28.1617C4.34141 25.4787 3.3184 22.3108 3.3184 18.9998C3.3184 10.353 10.3531 3.31826 19 3.31826C27.6469 3.31826 34.6816 10.353 34.6816 18.9998C34.6816 27.6468 27.6469 34.6816 19 34.6816Z" fill="white"/>
<path fill-rule="evenodd" clip-rule="evenodd" d="M26.3048 21.8451C25.5091 21.3692 24.4736 20.8378 23.5363 21.2214C22.8173 21.5156 22.3581 22.6414 21.8923 23.2162C21.6529 23.5113 21.3676 23.5574 21.0004 23.4096C18.3009 22.3343 16.2322 20.5321 14.7426 18.0491C14.4903 17.6631 14.5355 17.3589 14.8397 17.001C15.2899 16.4714 15.8548 15.8697 15.9765 15.1555C16.0982 14.4415 15.7634 13.6067 15.4682 12.9709C15.091 12.1585 14.6692 10.9998 13.8555 10.5402C13.1071 10.1176 12.1219 10.3542 11.4553 10.897C10.3049 11.8339 9.74986 13.3016 9.76644 14.7568C9.77117 15.1702 9.82202 15.5825 9.91857 15.9815C10.1507 16.9413 10.5942 17.8373 11.0935 18.6894C11.4698 19.3318 11.8788 19.9552 12.3201 20.5547C13.7642 22.5163 15.5605 24.2208 17.6404 25.4947C18.6797 26.1312 19.7991 26.6895 20.9582 27.0724C22.2583 27.5018 23.4166 27.9491 24.8203 27.6824C26.2901 27.4033 27.739 26.4938 28.3223 25.0773C28.4949 24.6582 28.5815 24.191 28.4849 23.7482C28.2851 22.8325 27.0455 22.2881 26.3048 21.8451Z" fill="white"/>
</svg>
